<?xml version="1.0" encoding="utf-8"?>
<svg width="149" height="24" viewBox="-0.379 -0.284 34.003 24.851" fill="none" xmlns="http://www.w3.org/2000/svg">
  <path fill-rule="evenodd" clip-rule="evenodd" d="M12.5293 3.50155C12.2823 3.25452 11.8818 3.25452 11.6347 3.50155L3.58358 11.5527C3.33655 11.7997 3.33655 12.2003 3.58358 12.4473L11.6347 20.4984C11.8818 20.7455 12.2823 20.7455 12.5293 20.4984L20.5805 12.4473C20.8275 12.2003 20.8275 11.7997 20.5805 11.5527L12.5293 3.50155ZM12.9766 0.370544C12.4825 -0.123515 11.6815 -0.123515 11.1875 0.370545L0.452575 11.1054C-0.0414834 11.5995 -0.0414836 12.4005 0.452576 12.8946L11.1875 23.6295C11.6815 24.1235 12.4825 24.1235 12.9766 23.6295L23.7115 12.8946C24.2055 12.4005 24.2055 11.5995 23.7115 11.1054L12.9766 0.370544Z" style="fill: rgb(211, 211, 211);"/>
  <mask id="mask0_785_46801" style="mask-type:alpha" maskUnits="userSpaceOnUse" x="0" y="0" width="25" height="24">
    <path fill-rule="evenodd" clip-rule="evenodd" d="M12.5293 3.50155C12.2823 3.25452 11.8818 3.25452 11.6347 3.50155L3.58358 11.5527C3.33655 11.7997 3.33655 12.2003 3.58358 12.4473L11.6347 20.4984C11.8818 20.7455 12.2823 20.7455 12.5293 20.4984L20.5805 12.4473C20.8275 12.2003 20.8275 11.7997 20.5805 11.5527L12.5293 3.50155ZM12.9766 0.370544C12.4825 -0.123515 11.6815 -0.123515 11.1875 0.370545L0.452575 11.1054C-0.0414834 11.5995 -0.0414836 12.4005 0.452576 12.8946L11.1875 23.6295C11.6815 24.1235 12.4825 24.1235 12.9766 23.6295L23.7115 12.8946C24.2055 12.4005 24.2055 11.5995 23.7115 11.1054L12.9766 0.370544Z" fill="white"/>
  </mask>
  <g mask="url(#mask0_785_46801)">
    <g filter="url(#filter0_d_785_46801)">
      <path d="M20.1875 0.370545C20.6815 -0.123515 21.4825 -0.123515 21.9766 0.370544L32.7115 11.1054C33.2055 11.5995 33.2055 12.4005 32.7115 12.8946L21.9766 23.6295C21.4825 24.1235 20.6815 24.1235 20.1875 23.6295L9.45258 12.8946C8.95852 12.4005 8.95852 11.5995 9.45258 11.1054L20.1875 0.370545Z" fill="black" fill-opacity="0.01"/>
    </g>
  </g>
  <path d="M20.1875 0.370545C20.6815 -0.123515 21.4825 -0.123515 21.9766 0.370544L32.7115 11.1054C33.2055 11.5995 33.2055 12.4005 32.7115 12.8946L21.9766 23.6295C21.4825 24.1235 20.6815 24.1235 20.1875 23.6295L9.45258 12.8946C8.95852 12.4005 8.95852 11.5995 9.45258 11.1054L20.1875 0.370545Z" style="fill: rgb(211, 211, 211);"/>
  <defs>
    <filter id="filter0_d_785_46801" x="3.29632" y="-5.78571" width="35.5714" height="35.5714" filterUnits="userSpaceOnUse" color-interpolation-filters="sRGB">
      <feFlood flood-opacity="0" result="BackgroundImageFix"/>
      <feColorMatrix in="SourceAlpha" type="matrix" values="0 0 0 0 0 0 0 0 0 0 0 0 0 0 0 0 0 0 127 0" result="hardAlpha"/>
      <feOffset/>
      <feGaussianBlur stdDeviation="2.89286"/>
      <feColorMatrix type="matrix" values="0 0 0 0 0 0 0 0 0 0 0 0 0 0 0 0 0 0 0.6 0"/>
      <feBlend mode="normal" in2="BackgroundImageFix" result="effect1_dropShadow_785_46801"/>
      <feBlend mode="normal" in="SourceGraphic" in2="effect1_dropShadow_785_46801" result="shape"/>
    </filter>
  </defs>
</svg>